<?xml version="1.0" standalone="no"?>
<!DOCTYPE svg PUBLIC "-//W3C//DTD SVG 20010904//EN"
 "http://www.w3.org/TR/2001/REC-SVG-20010904/DTD/svg10.dtd">
<svg version="1.0" xmlns="http://www.w3.org/2000/svg"
 width="460.000000pt" height="460.000000pt" viewBox="0 0 460.000000 460.000000"
 preserveAspectRatio="xMidYMid meet">
<metadata>
Created by potrace 1.11, written by Peter Selinger 2001-2013
</metadata>
<g transform="translate(0.000000,460.000000) scale(0.100000,-0.100000)"
fill="#000000" stroke="none">
<path d="M2097 4584 c-75 -18 -216 -87 -420 -207 -52 -31 -130 -95 -164 -135
-270 -319 -310 -382 -337 -538 -8 -43 -19 -91 -25 -106 -6 -15 -17 -68 -26
-118 -9 -50 -21 -103 -27 -118 -6 -15 -14 -74 -17 -132 l-6 -105 -44 -11 c-54
-13 -70 -39 -63 -104 4 -43 2 -48 -19 -53 -13 -3 -32 -12 -42 -19 -18 -13 -17
-15 1 -59 11 -25 36 -57 56 -72 20 -16 36 -34 36 -40 0 -7 15 -36 34 -65 28
-44 34 -49 39 -32 6 23 24 25 49 6 14 -11 16 -19 7 -49 -8 -30 -6 -44 12 -83
23 -48 87 -104 120 -104 10 0 36 -7 58 -16 33 -13 40 -22 49 -57 30 -123 42
-199 42 -258 l0 -66 -77 -32 c-43 -18 -132 -46 -198 -62 -157 -39 -227 -59
-241 -70 -6 -5 -42 -20 -79 -34 -37 -13 -74 -33 -82 -44 -7 -11 -30 -23 -51
-27 -20 -4 -50 -13 -65 -21 -24 -12 -38 -12 -78 -3 -80 20 -110 8 -191 -73
-71 -70 -147 -118 -212 -132 -16 -3 -52 -30 -82 -61 -43 -44 -54 -61 -54 -87
1 -27 3 -30 13 -17 7 8 19 15 27 15 9 0 14 7 12 18 -2 10 3 17 12 17 8 0 16 4
18 9 1 5 29 30 60 55 56 46 92 57 101 34 3 -8 6 -5 6 5 1 10 8 25 17 34 13 13
19 14 39 3 13 -7 29 -9 36 -5 7 5 10 4 6 -2 -4 -7 5 -10 25 -9 22 1 33 8 39
23 10 29 47 40 62 19 11 -15 15 -15 47 2 19 10 41 17 48 16 6 -1 20 -2 30 -3
24 -1 77 -54 94 -92 7 -16 16 -29 19 -29 4 0 12 -15 20 -32 23 -57 78 -133
110 -152 39 -23 45 -16 20 25 -12 19 -21 46 -21 60 0 15 -9 38 -21 53 -11 14
-18 29 -15 34 3 4 -9 21 -25 38 -16 16 -39 39 -51 51 -12 13 -28 23 -37 23
-26 0 4 21 41 29 18 4 33 11 34 16 0 6 4 18 9 28 5 12 2 24 -10 37 -16 17 -15
19 6 31 17 9 24 9 27 0 4 -13 42 -15 42 -2 0 5 12 11 26 14 20 3 33 -2 49 -19
12 -13 25 -24 27 -24 14 0 16 47 2 67 -13 20 -13 23 1 23 8 0 15 -3 15 -7 0
-5 11 -13 25 -20 14 -6 25 -7 25 -2 0 5 -4 9 -10 9 -19 0 -10 17 15 28 14 6
25 19 25 27 0 9 6 15 13 13 6 -1 38 10 70 25 32 15 62 27 67 27 5 0 19 10 30
22 11 12 40 28 63 35 54 16 57 16 57 -2 0 -10 -11 -15 -32 -16 -59 -2 -63 -4
-66 -27 -4 -26 13 -52 35 -52 15 0 62 49 63 66 0 15 45 56 53 48 4 -4 14 -1
23 7 16 13 17 11 10 -16 -4 -16 -8 -52 -9 -80 -2 -46 0 -50 22 -50 18 0 26 -8
36 -40 12 -40 34 -172 38 -230 1 -16 7 -36 14 -43 7 -7 13 -24 13 -38 0 -17 7
-25 27 -30 15 -4 36 -18 46 -31 30 -38 40 -18 34 62 -4 40 -11 85 -17 100 -9
25 -23 139 -22 195 0 13 5 26 11 28 6 2 8 16 4 34 -5 28 -4 30 17 23 21 -7 22
-5 16 19 -5 20 -3 26 9 26 9 0 14 -4 11 -8 -3 -5 7 -17 21 -28 14 -10 36 -40
48 -66 12 -26 25 -45 29 -41 3 3 6 -4 6 -16 0 -12 6 -24 14 -27 8 -3 26 -24
41 -46 39 -59 165 -178 230 -217 70 -42 171 -71 251 -71 82 0 200 32 264 71
49 30 172 145 219 205 12 15 24 24 28 20 4 -3 1 -12 -5 -18 -18 -18 -15 -68 3
-68 20 0 19 -17 -2 -29 -13 -7 -17 -21 -15 -53 1 -23 -7 -68 -18 -98 -11 -30
-21 -77 -23 -105 -3 -27 -8 -58 -12 -67 -10 -25 6 -22 27 5 54 68 86 116 98
147 7 19 19 42 27 51 7 8 13 25 13 37 0 12 6 22 14 22 9 0 14 13 14 38 2 56 5
72 13 67 15 -10 41 48 37 85 -2 23 1 38 7 37 11 -2 15 45 15 163 0 90 5 106
30 113 11 3 24 16 29 29 8 22 9 21 27 -17 11 -22 25 -44 32 -48 6 -4 12 -13
12 -18 0 -6 7 -17 15 -25 28 -29 12 -124 -21 -124 -16 0 -11 -15 4 -15 22 -1
32 -21 31 -63 -1 -71 -11 -97 -37 -98 -12 -1 -22 3 -22 7 0 5 -4 9 -10 9 -5 0
-9 -12 -8 -27 0 -16 -10 -64 -22 -108 -12 -44 -22 -92 -21 -107 0 -15 -4 -30
-9 -33 -6 -4 -10 -13 -10 -22 0 -13 3 -13 15 -3 8 7 15 20 15 30 0 10 6 23 13
29 8 6 29 40 47 76 32 63 46 82 56 73 3 -4 -62 -146 -96 -209 -5 -9 -12 -34
-16 -55 -3 -22 -10 -43 -14 -49 -4 -5 -10 -21 -12 -35 -3 -14 -9 -33 -13 -42
-15 -37 14 -16 31 21 10 23 23 38 33 37 9 0 23 14 33 34 10 19 55 74 100 123
46 49 85 93 86 98 2 5 9 9 16 9 7 0 21 9 31 20 10 11 22 20 27 20 5 0 19 10
31 23 29 30 82 67 96 67 7 0 -11 -27 -39 -61 -27 -33 -50 -63 -50 -68 0 -4 -8
-16 -19 -27 -10 -11 -30 -39 -44 -61 -15 -23 -31 -44 -37 -48 -5 -3 -10 -18
-10 -32 0 -14 -8 -32 -17 -39 -13 -9 -15 -16 -7 -24 8 -8 21 0 47 30 21 22 37
44 37 50 0 13 160 173 167 167 4 -5 -12 -40 -59 -131 -17 -33 -27 -76 -18 -76
5 0 14 9 20 20 6 11 8 20 4 20 -4 0 3 11 16 25 13 14 25 32 26 39 3 19 35 66
44 66 5 0 12 9 15 21 18 55 136 148 171 135 22 -9 17 -46 -6 -46 -11 0 -20 -4
-20 -10 0 -5 -7 -7 -15 -4 -8 4 -15 2 -15 -4 0 -6 -16 -27 -36 -47 -21 -22
-33 -43 -30 -52 3 -8 6 -17 6 -19 0 -2 7 -4 15 -4 18 0 20 16 3 23 -16 6 20
37 42 36 10 0 11 -2 3 -6 -7 -2 -13 -12 -13 -22 0 -9 -5 -22 -10 -27 -6 -6
-13 -29 -16 -52 -3 -23 -14 -59 -24 -80 -19 -38 -11 -54 16 -31 8 7 13 21 11
31 -3 10 -1 18 3 18 5 0 19 17 31 38 13 20 32 43 43 51 11 8 28 23 38 33 10
10 18 16 18 13 0 -11 -34 -75 -41 -75 -4 0 -9 -9 -12 -20 -10 -37 18 -21 95
55 78 77 97 88 99 58 2 -33 -2 -45 -32 -86 -16 -22 -27 -42 -25 -45 3 -2 21 1
40 8 36 12 76 6 76 -11 0 -5 5 -9 10 -9 6 0 10 7 10 16 0 14 3 14 15 4 12 -10
18 -10 30 0 12 10 18 10 30 0 23 -19 18 -40 -20 -104 -40 -67 -40 -66 -21 -66
8 0 26 14 40 30 l25 30 15 -27 c12 -24 15 -26 21 -10 4 9 5 24 1 32 -9 25 8
17 42 -18 38 -40 41 -57 7 -57 l-25 0 20 -20 c11 -11 22 -20 25 -20 3 0 15 -9
27 -20 12 -11 16 -20 10 -20 -7 0 -12 -14 -12 -33 0 -40 -20 -69 -73 -108 -52
-37 -37 -37 36 1 71 36 77 37 77 5 0 -25 17 -64 34 -76 13 -10 -3 -31 -17 -22
-7 3 -3 -4 8 -16 16 -18 17 -25 7 -41 -7 -11 -12 -28 -12 -39 0 -11 -18 -36
-40 -57 -22 -21 -40 -47 -40 -58 0 -19 1 -19 23 2 13 12 27 22 31 22 5 0 19
12 32 27 l24 28 0 -42 c0 -36 5 -46 42 -77 27 -24 36 -36 25 -36 -9 0 -17 -4
-17 -10 0 -5 9 -10 20 -10 21 0 28 -26 9 -32 -6 -2 2 -10 18 -17 89 -42 98
-50 98 -78 0 -26 40 -81 51 -70 3 3 -4 25 -16 50 -12 25 -19 55 -16 70 3 18
-7 49 -31 94 -42 79 -92 270 -102 388 -4 46 -14 94 -25 114 -10 18 -32 77 -51
131 -35 106 -128 290 -175 350 -17 21 -40 56 -53 78 -38 68 -131 160 -183 184
-27 11 -78 24 -115 28 -42 5 -92 19 -135 40 -93 44 -175 70 -257 80 -51 6 -75
14 -95 32 -51 47 -91 69 -134 73 -52 5 -118 31 -118 46 0 5 9 30 20 53 11 24
25 64 32 90 10 39 16 46 42 51 53 10 75 27 134 99 l57 71 4 78 c3 71 6 80 34
108 33 34 65 49 102 49 27 0 75 19 75 30 0 4 -20 5 -45 2 -56 -6 -61 13 -7 28
63 17 75 38 78 138 2 77 -1 91 -22 125 -27 41 -30 77 -19 174 10 79 4 100 -44
161 -37 46 -39 53 -31 84 18 59 5 189 -21 223 -4 6 -17 35 -29 65 -27 70 -76
166 -104 205 -12 17 -36 59 -53 95 -25 51 -54 85 -133 160 -56 52 -108 108
-117 125 -21 40 -112 158 -129 168 -8 4 -14 14 -14 21 0 31 -31 40 -156 42
-109 2 -130 6 -162 25 -30 18 -56 23 -134 27 -92 4 -99 3 -116 -18 l-18 -22
-54 21 c-63 24 -83 25 -163 5z m493 -1114 c12 -22 12 -24 -2 -12 -13 10 -17
10 -20 0 -3 -8 -7 -6 -11 6 -4 10 -3 15 3 11 6 -3 10 2 10 11 0 20 3 18 20
-16z m-403 -106 c16 -21 50 -46 82 -61 49 -22 54 -22 65 -7 11 15 14 15 29 0
9 -10 18 -12 22 -6 10 17 44 11 90 -15 23 -14 77 -32 120 -40 100 -19 200 -85
130 -85 -19 0 -31 -10 -46 -35 -24 -41 -43 -47 -29 -9 15 38 11 43 -6 10 -11
-20 -18 -25 -24 -16 -5 8 -10 9 -14 2 -4 -6 -13 -9 -21 -5 -8 3 -15 0 -15 -6
0 -6 -7 -11 -15 -11 -22 0 -18 -37 6 -61 11 -11 18 -26 14 -32 -14 -28 -32
-56 -43 -69 -7 -8 -15 -51 -18 -94 -4 -45 -13 -86 -21 -95 -12 -14 -12 -17 3
-23 13 -5 15 -15 11 -48 -7 -53 9 -142 34 -189 19 -36 19 -37 -1 -62 -21 -27
-26 -47 -11 -47 18 0 80 45 81 58 0 6 9 12 20 12 25 0 40 29 35 66 -2 16 -4
34 -4 40 -1 6 -16 30 -34 53 -33 42 -39 78 -17 106 10 12 -4 140 -19 179 -13
32 -9 42 11 30 14 -10 39 -12 135 -14 35 -1 65 -6 69 -12 4 -7 9 -5 15 3 6 10
9 10 9 2 0 -9 19 -10 70 -6 61 5 70 4 70 -11 0 -23 37 -20 43 4 4 18 -6 87
-15 94 -15 13 -100 32 -128 29 -19 -1 -71 2 -115 9 -75 11 -78 12 -45 21 19 4
62 16 95 25 103 29 242 17 220 -18 -3 -5 1 -14 8 -22 7 -7 12 -28 10 -45 -3
-37 2 -40 28 -17 35 32 47 -3 53 -159 3 -71 1 -87 -10 -83 -8 3 -19 -5 -25
-17 -7 -12 -17 -25 -23 -29 -8 -5 -4 -20 12 -47 12 -22 22 -51 22 -65 0 -15 5
-26 10 -26 6 0 11 -19 10 -42 0 -24 0 -54 0 -68 1 -77 -3 -127 -12 -143 -6
-12 -6 -23 2 -31 8 -10 6 -15 -7 -20 -14 -6 -15 -9 -4 -16 18 -11 6 -41 -13
-34 -11 4 -16 -6 -22 -43 -4 -29 -18 -62 -34 -83 -15 -19 -35 -50 -44 -67 -9
-18 -20 -33 -25 -33 -5 0 -14 -13 -21 -30 -7 -17 -16 -30 -21 -30 -5 0 -15
-13 -23 -28 -8 -16 -26 -40 -40 -53 -14 -13 -26 -29 -26 -34 0 -16 -37 -35
-55 -29 -9 4 -18 -1 -22 -12 -4 -10 -22 -33 -40 -51 -18 -18 -48 -57 -66 -86
-19 -28 -45 -64 -59 -78 -30 -32 -133 -72 -164 -65 -13 4 -25 2 -28 -3 -9 -15
-74 -20 -108 -9 -18 6 -51 19 -74 29 -23 11 -46 19 -52 19 -26 0 -92 57 -106
93 -9 20 -20 37 -26 37 -5 0 -10 5 -10 11 0 6 -15 29 -33 52 -19 23 -37 50
-41 61 -6 17 -8 18 -24 2 -29 -25 -38 -20 -66 37 -49 96 -98 182 -123 215 -13
17 -22 36 -19 41 3 5 0 11 -8 14 -8 3 -22 27 -31 54 -9 26 -21 57 -25 68 -24
57 -31 101 -28 179 2 55 7 86 14 86 6 0 14 20 17 45 4 24 11 53 16 62 15 29
34 105 36 149 2 22 8 50 14 62 15 27 14 45 -1 39 -7 -2 -12 -9 -11 -15 2 -6
-6 -14 -17 -17 -11 -4 -20 -11 -20 -16 0 -5 -9 -9 -20 -9 -28 0 -26 40 6 143
34 109 46 131 72 135 12 2 22 8 22 13 0 5 9 9 19 9 11 0 21 7 23 16 2 9 26 23
55 33 50 17 56 17 145 0 126 -24 151 -30 165 -41 15 -12 141 -12 173 0 l24 9
-24 13 c-14 7 -36 23 -50 35 -14 13 -36 26 -50 30 -14 3 -43 15 -65 25 -22 11
-57 22 -78 25 l-37 6 52 44 c28 25 61 45 72 45 19 0 19 2 -6 25 -15 14 -33 25
-41 25 -8 0 -19 11 -25 25 -16 35 -15 37 8 23 11 -7 20 -19 20 -26 0 -7 5 -10
11 -7 6 4 7 19 4 36 -9 40 8 37 42 -7z m139 -42 c-22 -5 -30 3 -21 18 5 8 11
7 22 -2 15 -12 14 -13 -1 -16z m1228 -72 c4 -25 3 -31 -4 -20 -5 8 -10 26 -10
39 0 32 6 24 14 -19z m-1474 0 c0 -5 -7 -7 -15 -4 -8 4 -15 8 -15 10 0 2 7 4
15 4 8 0 15 -4 15 -10z m959 -39 c21 -13 -5 -24 -29 -11 -11 6 -20 13 -20 15
0 8 34 5 49 -4z m-1009 -15 c0 -11 -19 -15 -25 -6 -3 5 1 10 9 10 9 0 16 -2
16 -4z m610 -194 c0 -5 -7 -9 -15 -9 -8 0 -15 4 -15 9 0 4 7 8 15 8 8 0 15 -4
15 -8z m30 -49 c0 -12 -52 -33 -63 -26 -13 8 21 33 45 33 10 0 18 -3 18 -7z
m130 -13 c0 -5 -4 -10 -9 -10 -6 0 -13 5 -16 10 -3 6 1 10 9 10 9 0 16 -4 16
-10z m-84 -11 c8 -14 -18 -31 -30 -19 -9 9 0 30 14 30 5 0 12 -5 16 -11z
m-1232 -251 c3 -29 6 -73 6 -98 l-1 -45 -34 37 c-34 36 -45 71 -26 82 5 3 12
22 15 41 10 53 32 44 40 -17z m1736 -123 c0 -14 -4 -25 -10 -25 -11 0 -14 33
-3 43 11 11 13 8 13 -18z m-590 -50 c0 -8 -4 -15 -10 -15 -5 0 -10 7 -10 15 0
8 5 15 10 15 6 0 10 -7 10 -15z m23 -40 c1 -5 -6 -11 -15 -13 -11 -2 -18 3
-18 13 0 17 30 18 33 0z m-1243 -445 c0 -5 -2 -10 -4 -10 -3 0 -8 5 -11 10 -3
6 -1 10 4 10 6 0 11 -4 11 -10z m1840 -104 c0 -11 -19 -15 -25 -6 -3 5 1 10 9
10 9 0 16 -2 16 -4z m181 -28 c0 -13 3 -17 6 -10 8 21 23 13 15 -8 -4 -11 -34
-38 -66 -60 -60 -41 -88 -51 -66 -25 7 8 9 15 6 15 -4 0 4 11 18 24 15 13 26
27 26 33 0 15 34 53 48 53 6 0 12 -10 13 -22z m607 -189 c2 -12 -4 -15 -27
-11 -17 2 -36 11 -42 19 -11 12 -7 14 27 11 26 -2 40 -8 42 -19z m-1188 -63
c0 -3 -4 -8 -10 -11 -5 -3 -10 -1 -10 4 0 6 5 11 10 11 6 0 10 -2 10 -4z
m1155 -96 c-3 -5 -11 -10 -16 -10 -6 0 -7 5 -4 10 3 6 11 10 16 10 6 0 7 -4 4
-10z m-1728 -126 c-3 -3 -12 -4 -19 -1 -8 3 -5 6 6 6 11 1 17 -2 13 -5z m1863
-54 c0 -5 -5 -10 -11 -10 -5 0 -7 5 -4 10 3 6 8 10 11 10 2 0 4 -4 4 -10z
m-1020 -120 c0 -5 -7 -7 -15 -4 -8 4 -15 8 -15 10 0 2 7 4 15 4 8 0 15 -4 15
-10z"/>
<path d="M2098 3024 c-3 -3 -48 -7 -99 -8 -108 -4 -154 -13 -170 -32 -6 -8
-18 -14 -25 -14 -41 0 21 -49 62 -50 91 -2 202 -9 222 -15 13 -5 22 -3 22 4 0
5 8 8 18 5 16 -5 16 -5 0 6 -26 16 -22 30 7 30 20 0 25 -5 25 -25 0 -22 3 -25
24 -19 13 3 33 1 43 -4 24 -13 46 -1 37 21 -3 10 -1 17 5 17 10 0 15 -14 12
-32 0 -5 4 -8 9 -8 15 0 12 -36 -11 -113 -16 -54 -18 -76 -10 -93 7 -15 7 -42
1 -81 -14 -81 -12 -110 5 -117 20 -7 45 3 45 19 0 7 7 18 15 25 8 7 14 24 13
39 -1 14 7 39 17 54 14 22 16 33 8 46 -6 9 -9 55 -8 101 2 68 -1 90 -15 110
-9 14 -20 34 -24 46 -8 27 -61 77 -77 72 -8 -3 -7 -9 5 -21 25 -25 -3 -22 -30
3 -13 13 -37 22 -63 23 -22 1 -41 5 -41 9 0 9 -14 11 -22 2z m142 -76 c0 -11
-4 -10 -35 4 -35 16 -31 29 5 15 17 -6 30 -15 30 -19z"/>
<path d="M2230 2600 c0 -5 -6 -7 -14 -4 -16 6 -44 -35 -53 -76 -5 -27 0 -36
48 -80 30 -27 58 -50 62 -50 5 0 27 -16 50 -35 31 -27 49 -35 76 -34 30 2 31
3 9 6 -18 3 -34 16 -49 41 -12 20 -29 43 -38 50 -8 7 -16 22 -16 35 0 20 -4
22 -53 20 -47 -2 -54 1 -64 23 -10 21 -8 27 10 45 12 11 22 24 22 28 0 5 9 11
21 14 12 3 18 10 14 16 -8 14 -25 14 -25 1z"/>
<path d="M2710 2315 c0 -8 7 -15 15 -15 8 0 15 4 15 9 0 5 -7 11 -15 15 -9 3
-15 0 -15 -9z"/>
<path d="M2006 2236 l-38 -12 26 -31 c14 -17 26 -34 26 -38 0 -3 18 -24 40
-45 22 -21 39 -42 38 -47 -3 -14 43 -83 56 -83 7 0 21 -9 30 -19 23 -25 63
-33 71 -13 4 10 14 13 35 9 16 -4 32 -2 35 3 4 7 13 6 25 0 25 -13 43 -13 35
1 -4 6 2 5 14 -3 12 -7 21 -16 21 -20 0 -4 6 -5 14 -2 7 3 16 -2 19 -10 8 -20
26 -20 88 0 35 12 53 24 60 40 4 13 13 24 19 24 5 0 10 7 10 15 0 9 7 18 15
21 8 4 15 15 15 25 0 10 6 19 13 19 22 1 119 99 115 117 -5 25 -72 36 -138 23
-61 -12 -118 -18 -198 -19 -74 -1 -66 -26 8 -27 32 -1 56 -6 58 -13 3 -9 9 -8
22 4 16 14 19 14 33 1 13 -14 16 -14 27 -1 16 20 29 19 37 -2 4 -10 11 -21 17
-25 12 -8 -40 -68 -58 -68 -6 0 -17 -9 -24 -20 -7 -12 -20 -19 -34 -17 -12 2
-33 -2 -47 -10 -14 -7 -34 -13 -43 -13 -9 0 -20 -4 -23 -10 -10 -15 -57 -6
-99 20 -21 13 -49 24 -62 25 -12 0 -31 8 -42 18 -10 9 -23 17 -29 17 -11 0
-30 39 -27 58 1 6 2 20 3 31 1 17 9 18 88 16 48 -2 93 -1 100 2 21 8 4 23 -25
22 -37 -2 -175 21 -187 31 -19 15 -100 19 -139 6z m140 -84 c12 -29 11 -34 -2
-39 -20 -7 -24 -2 -29 41 -6 46 11 45 31 -2z"/>
<path d="M961 1674 c0 -11 3 -14 6 -6 3 7 2 16 -1 19 -3 4 -6 -2 -5 -13z"/>
<path d="M3140 1680 c0 -5 5 -10 10 -10 6 0 10 5 10 10 0 6 -4 10 -10 10 -5 0
-10 -4 -10 -10z"/>
<path d="M460 1569 c0 -8 15 -21 33 -30 23 -11 41 -35 69 -90 21 -41 38 -87
38 -103 0 -21 4 -27 15 -22 8 3 14 2 14 -2 -4 -24 5 -44 37 -86 20 -26 38 -45
41 -43 8 8 -46 117 -57 117 -6 0 -9 4 -6 8 3 5 -13 44 -34 88 -22 43 -39 87
-40 97 0 9 -9 25 -19 34 -11 9 -18 20 -15 25 3 4 -2 11 -11 15 -10 3 -21 0
-25 -7 -7 -11 -11 -11 -24 -1 -13 11 -16 11 -16 0z"/>
<path d="M922 1450 c0 -14 2 -19 5 -12 2 6 2 18 0 25 -3 6 -5 1 -5 -13z"/>
<path d="M3616 1415 c-3 -8 -1 -15 4 -15 6 0 10 7 10 15 0 8 -2 15 -4 15 -2 0
-6 -7 -10 -15z"/>
<path d="M930 1391 c0 -10 3 -21 7 -25 4 -4 8 -15 8 -23 0 -9 6 -18 14 -21 10
-3 12 1 8 19 -4 13 -7 31 -7 40 0 9 -7 19 -15 23 -10 3 -15 -1 -15 -13z"/>
<path d="M546 1340 c4 -19 10 -51 14 -70 8 -33 8 -33 9 15 0 30 -6 58 -15 70
-13 18 -14 17 -8 -15z"/>
<path d="M3720 1323 c0 -5 -13 -21 -28 -38 -15 -16 -31 -38 -35 -47 -3 -10
-13 -18 -21 -18 -7 0 -17 -12 -22 -27 -12 -43 -26 -79 -50 -127 -8 -16 -12
-32 -8 -35 6 -6 43 38 44 52 0 5 23 42 50 83 28 41 50 77 50 80 0 3 11 20 25
36 14 16 23 34 19 39 -6 11 -24 12 -24 2z"/>
<path d="M4063 1311 c-2 -21 23 -36 33 -20 8 14 -3 39 -19 39 -7 0 -13 -9 -14
-19z"/>
<path d="M3973 1283 c-52 -28 -170 -130 -161 -139 3 -3 28 17 57 44 28 26 52
43 54 38 4 -13 50 8 83 37 12 10 26 17 32 15 10 -3 12 1 12 22 0 17 -23 11
-77 -17z"/>
<path d="M3830 1255 c0 -8 2 -15 4 -15 2 0 6 7 10 15 3 8 1 15 -4 15 -6 0 -10
-7 -10 -15z"/>
<path d="M3795 1230 c-3 -5 -1 -10 4 -10 6 0 11 5 11 10 0 6 -2 10 -4 10 -3 0
-8 -4 -11 -10z"/>
<path d="M700 1176 c0 -3 11 -17 25 -32 29 -31 34 -18 6 14 -17 20 -31 28 -31
18z"/>
<path d="M4195 1100 c4 -6 11 -8 16 -5 14 9 11 15 -7 15 -8 0 -12 -5 -9 -10z"/>
<path d="M760 1085 c0 -8 4 -15 10 -15 5 0 7 7 4 15 -4 8 -8 15 -10 15 -2 0
-4 -7 -4 -15z"/>
<path d="M630 910 c1 -8 8 -26 16 -40 l15 -25 -6 30 c-7 33 -25 59 -25 35z"/>
<path d="M4089 874 c-12 -14 -11 -16 5 -13 11 2 21 10 24 17 5 17 -13 15 -29
-4z"/>
<path d="M661 824 c0 -11 3 -14 6 -6 3 7 2 16 -1 19 -3 4 -6 -2 -5 -13z"/>
<path d="M4215 620 c-3 -5 -1 -10 4 -10 6 0 11 5 11 10 0 6 -2 10 -4 10 -3 0
-8 -4 -11 -10z"/>
<path d="M4178 593 c7 -3 16 -2 19 1 4 3 -2 6 -13 5 -11 0 -14 -3 -6 -6z"/>
<path d="M3431 516 c-7 -38 -10 -71 -7 -73 3 -3 1 -14 -5 -24 -5 -10 -10 -36
-11 -56 0 -21 -5 -49 -10 -63 -8 -22 -7 -23 6 -10 8 8 20 38 27 65 6 28 15 57
19 66 4 8 4 22 -1 31 -5 8 -4 30 2 50 5 21 6 45 1 59 -8 20 -11 12 -21 -45z"/>
<path d="M2712 543 c-19 -28 -37 -83 -27 -83 3 0 15 21 27 48 12 26 23 50 25
55 10 18 -8 4 -25 -20z"/>
<path d="M2448 519 c-16 -16 -28 -31 -28 -33 0 -2 -14 -20 -32 -40 -81 -92
-186 -100 -324 -26 -43 24 -81 46 -84 49 -6 7 -48 31 -54 31 -2 0 -2 -9 1 -20
3 -11 10 -20 17 -20 6 0 17 -9 24 -21 10 -15 21 -20 38 -16 20 4 23 1 19 -14
-5 -15 0 -20 24 -25 17 -4 31 -10 31 -14 0 -10 122 -33 174 -33 26 0 43 6 52
17 8 12 19 16 33 11 12 -4 21 -2 21 4 0 6 25 36 55 66 30 30 55 61 55 70 0 9
5 13 10 10 6 -3 10 3 10 14 0 28 -10 25 -42 -10z"/>
<path d="M3187 533 c-4 -3 -30 -14 -58 -24 -71 -25 -101 -46 -95 -67 2 -9 7
-46 11 -82 8 -81 -8 -64 -25 27 -7 35 -15 63 -19 63 -12 0 -81 -26 -87 -33 -4
-4 -17 -7 -29 -7 -11 0 -42 -13 -67 -29 -41 -26 -47 -35 -53 -73 -9 -59 -9
-71 -1 -173 12 -149 -1 -135 130 -135 l113 0 12 40 c7 23 10 49 7 58 -3 9 -2
23 3 31 7 10 11 0 16 -35 11 -84 14 -94 35 -94 10 0 21 4 24 9 3 4 35 23 71
42 71 36 112 79 121 129 8 40 23 39 23 -3 0 -73 3 -97 13 -97 6 0 8 13 6 32
-3 17 -1 50 4 72 8 34 14 245 8 281 -3 22 -19 -32 -19 -68 -1 -23 -5 -36 -11
-32 -6 4 -9 16 -8 28 4 45 -14 97 -44 122 -28 24 -67 33 -81 18z"/>
<path d="M3341 504 c0 -11 3 -14 6 -6 3 7 2 16 -1 19 -3 4 -6 -2 -5 -13z"/>
<path d="M4368 503 c7 -3 16 -2 19 1 4 3 -2 6 -13 5 -11 0 -14 -3 -6 -6z"/>
<path d="M2660 424 c0 -8 5 -12 10 -9 6 3 10 10 10 16 0 5 -4 9 -10 9 -5 0
-10 -7 -10 -16z"/>
<path d="M2433 378 c-72 -64 -149 -92 -233 -84 -36 3 -75 9 -87 12 -39 11 -25
-10 20 -30 149 -65 177 -70 208 -34 14 17 21 20 27 10 10 -15 34 9 87 90 50
77 41 92 -22 36z"/>
<path d="M2640 385 c0 -8 5 -15 10 -15 6 0 10 7 10 15 0 8 -4 15 -10 15 -5 0
-10 -7 -10 -15z"/>
<path d="M2630 349 c0 -5 5 -7 10 -4 6 3 10 8 10 11 0 2 -4 4 -10 4 -5 0 -10
-5 -10 -11z"/>
<path d="M1990 344 c0 -2 14 -11 31 -20 23 -11 30 -12 27 -3 -4 11 -58 33 -58
23z"/>
<path d="M4510 315 c-6 -8 -9 -19 -5 -25 4 -7 -2 -14 -14 -17 -22 -6 -25 -12
-15 -37 5 -13 9 -14 20 -5 11 9 15 7 21 -7 3 -11 11 -22 17 -26 6 -4 10 -33 8
-67 -2 -46 1 -60 14 -65 9 -4 14 -13 10 -21 -3 -8 -1 -15 5 -15 6 0 9 -7 5
-15 -3 -9 0 -15 9 -15 13 0 15 25 15 155 l0 155 -26 10 c-35 14 -49 13 -64 -5z"/>
<path d="M2578 229 c-25 -52 -50 -105 -53 -119 -4 -14 -19 -44 -32 -68 l-25
-42 136 0 136 0 -11 28 c-7 15 -15 36 -20 47 -4 11 -11 35 -14 53 -4 18 -13
45 -20 60 -28 58 -44 98 -47 116 -2 11 -21 -17 -50 -75z"/>
<path d="M657 213 c-11 -10 -8 -51 3 -58 6 -4 10 8 10 29 0 37 -2 41 -13 29z"/>
<path d="M2433 178 c-30 -14 -43 -27 -44 -42 -1 -11 -2 -25 -4 -31 -1 -5 -3
-14 -4 -20 0 -5 -10 5 -21 23 l-20 32 -39 -19 c-21 -11 -58 -42 -81 -68 l-42
-48 113 -3 c62 -1 115 1 119 5 4 4 12 26 18 49 7 23 22 56 35 75 49 73 43 83
-30 47z"/>
<path d="M3394 98 c-11 -90 -8 -100 36 -96 18 2 25 9 26 26 2 33 -11 36 -25 5
-6 -14 -14 -23 -18 -20 -3 4 -1 12 4 19 14 18 37 123 30 139 -3 10 -8 6 -15
-11 l-10 -25 -9 23 c-7 19 -11 7 -19 -60z"/>
<path d="M610 21 c0 -12 5 -21 10 -21 6 0 10 6 10 14 0 8 -4 18 -10 21 -5 3
-10 -3 -10 -14z"/>
<path d="M3325 30 c3 -5 8 -10 11 -10 2 0 4 5 4 10 0 6 -5 10 -11 10 -5 0 -7
-4 -4 -10z"/>
</g>
</svg>
